<svg width="4645" height="1303" xmlns="http://www.w3.org/2000/svg" xmlns:xlink="http://www.w3.org/1999/xlink" xml:space="preserve" overflow="hidden"><g transform="translate(153 -409)"><rect x="-150.5" y="441.5" width="1398" height="1268" stroke="#000000" stroke-width="4.58333" stroke-linecap="round" stroke-linejoin="round" stroke-miterlimit="10" stroke-dasharray="13.75 18.3333" fill="#FFFFFF"/><rect x="-77.4998" y="987.5" width="1249" height="176" stroke="#000000" stroke-width="4.58333" stroke-linecap="round" stroke-linejoin="round" stroke-miterlimit="10" stroke-dasharray="9.16667 9.16667" fill="#FFFFFF"/><text font-family="Arial,Arial_MSFontService,sans-serif" font-weight="400" font-size="128" transform="matrix(1 0 0 1 139.859 1115)">StatusManager</text><path d="M-57.4999 1404.33C-57.4999 1388.96-45.0408 1376.5-29.6718 1376.5L450.672 1376.5C466.041 1376.5 478.5 1388.96 478.5 1404.33L478.5 1597.67C478.5 1613.04 466.041 1625.5 450.672 1625.5L-29.6718 1625.5C-45.0408 1625.5-57.4999 1613.04-57.4999 1597.67Z" stroke="#000000" stroke-width="4.58333" stroke-linecap="square" stroke-miterlimit="8" stroke-dasharray="13.75 4.58333" fill="none" fill-rule="evenodd"/><text font-family="Arial,Arial_MSFontService,sans-serif" font-weight="400" font-size="128" transform="matrix(1 0 0 1 31.7488 1542)">Robot</text><path d="M576.5 1404.33C576.5 1388.96 588.959 1376.5 604.328 1376.5L1084.67 1376.5C1100.04 1376.5 1112.5 1388.96 1112.5 1404.33L1112.5 1597.67C1112.5 1613.04 1100.04 1625.5 1084.67 1625.5L604.328 1625.5C588.959 1625.5 576.5 1613.04 576.5 1597.67Z" stroke="#000000" stroke-width="4.58333" stroke-linecap="square" stroke-miterlimit="8" stroke-dasharray="13.75 4.58333" fill="none" fill-rule="evenodd"/><text font-family="Arial,Arial_MSFontService,sans-serif" font-weight="400" font-size="92" transform="matrix(1 0 0 1 600.062 1534)">Workstation</text><path d="M478.5 521.44C478.5 506.009 491.009 493.5 506.44 493.5L1176.56 493.5C1191.99 493.5 1204.5 506.009 1204.5 521.44L1204.5 715.56C1204.5 730.991 1191.99 743.5 1176.56 743.5L506.44 743.5C491.009 743.5 478.5 730.991 478.5 715.56Z" stroke="#000000" stroke-width="4.58333" stroke-linecap="square" stroke-miterlimit="8" stroke-dasharray="13.75 4.58333" fill="none" fill-rule="evenodd"/><text font-family="Arial,Arial_MSFontService,sans-serif" font-weight="400" font-size="128" transform="matrix(1 0 0 1 719.618 665)">GUI</text><path d="M787.5 892 808.25 892 808.25 795.5 849.75 795.5 849.75 892 870.5 892 829 933.5Z" stroke="#00B050" stroke-width="4.58333" stroke-miterlimit="8" fill="#00B050" fill-rule="evenodd"/><path d="M108 1298.5 128.75 1298.5 128.75 1201 170.25 1201 170.25 1298.5 191 1298.5 149.5 1340Z" fill="#FFC000" fill-rule="evenodd"/><path d="M704 1300.5 724.75 1300.5 724.75 1203 766.25 1203 766.25 1300.5 787 1300.5 745.5 1342Z" fill="#FFC000" fill-rule="evenodd"/><path d="M328.5 1234 307.75 1234 307.75 1331.5 266.25 1331.5 266.25 1234 245.5 1234 287 1192.5Z" stroke="#4472C4" stroke-width="4.58333" stroke-miterlimit="8" fill="#4472C4" fill-rule="evenodd"/><path d="M923.5 1239 902.75 1239 902.75 1336.5 861.25 1336.5 861.25 1239 840.5 1239 882 1197.5Z" stroke="#4472C4" stroke-width="4.58333" stroke-miterlimit="8" fill="#4472C4" fill-rule="evenodd"/><text font-family="DengXian,DengXian_MSFontService,sans-serif" font-weight="400" font-size="83" transform="matrix(1 0 0 1 -1.8189 726)">Instruction </text><path d="M-111 726.5-94.75 726.5-94.75 643-62.2501 643-62.2501 726.5-46.0001 726.5-78.5 759Z" fill="#FFC000" fill-rule="evenodd"/><path d="M-45.4999 824-61.7499 824-61.7499 908.5-94.2498 908.5-94.2498 824-110.5 824-77.9999 791.5Z" stroke="#4472C4" stroke-width="4.58333" stroke-miterlimit="8" fill="#4472C4" fill-rule="evenodd"/><text font-family="DengXian,DengXian_MSFontService,sans-serif" font-weight="400" font-size="83" transform="matrix(1 0 0 1 1.34108 885)">Status </text><path d="M-110.5 577-94.2498 577-94.2498 493.5-61.7499 493.5-61.7499 577-45.4999 577-77.9998 609.5Z" stroke="#00B050" stroke-width="4.58333" stroke-miterlimit="8" fill="#00B050" fill-rule="evenodd"/><text font-family="DengXian,DengXian_MSFontService,sans-serif" font-weight="400" font-size="83" transform="matrix(1 0 0 1 -1.8189 583)">Task info </text><rect x="1960.5" y="441.5" width="2529" height="1268" stroke="#000000" stroke-width="4.58333" stroke-linecap="round" stroke-linejoin="round" stroke-miterlimit="10" fill="#FFFFFF"/><text font-family="Times New Roman,Times New Roman_MSFontService,sans-serif" font-weight="400" font-size="92" transform="matrix(1 0 0 1 2224.85 526)">Multi</text><text font-family="Times New Roman,Times New Roman_MSFontService,sans-serif" font-weight="400" font-size="92" transform="matrix(1 0 0 1 2427.66 526)">-</text><text font-family="Times New Roman,Times New Roman_MSFontService,sans-serif" font-weight="400" font-size="92" transform="matrix(1 0 0 1 2458.02 526)">robot</text><text font-family="Times New Roman,Times New Roman_MSFontService,sans-serif" font-weight="400" font-size="92" transform="matrix(1 0 0 1 2651.1 526)">-</text><text font-family="Times New Roman,Times New Roman_MSFontService,sans-serif" font-weight="400" font-size="92" transform="matrix(1 0 0 1 2681.46 526)">multi</text><text font-family="Times New Roman,Times New Roman_MSFontService,sans-serif" font-weight="400" font-size="92" transform="matrix(1 0 0 1 2873.96 526)">-</text><text font-family="Times New Roman,Times New Roman_MSFontService,sans-serif" font-weight="400" font-size="92" transform="matrix(1 0 0 1 2904.32 526)">task scheduling(scheduling.py)</text><rect x="2029.5" y="598.5" width="1576" height="145" stroke="#000000" stroke-width="4.58333" stroke-linecap="round" stroke-linejoin="round" stroke-miterlimit="10" stroke-dasharray="9.16667 9.16667" fill="none"/><text font-family="DengXian,DengXian_MSFontService,sans-serif" font-weight="400" font-size="83" transform="matrix(1 0 0 1 2062.79 692)">Thread</text><text font-family="DengXian,DengXian_MSFontService,sans-serif" font-weight="400" font-size="83" transform="matrix(1 0 0 1 2310.29 692)">-</text><text font-family="DengXian,DengXian_MSFontService,sans-serif" font-weight="400" font-size="83" transform="matrix(1 0 0 1 2351.54 692)">1 : flask server  </text><rect x="2029.5" y="851.5" width="1576" height="798" stroke="#000000" stroke-width="4.58333" stroke-linecap="round" stroke-linejoin="round" stroke-miterlimit="10" stroke-dasharray="9.16667 9.16667" fill="none"/><text font-family="DengXian,DengXian_MSFontService,sans-serif" font-weight="400" font-size="83" transform="matrix(1 0 0 1 2062.79 953)">Thread</text><text font-family="DengXian,DengXian_MSFontService,sans-serif" font-weight="400" font-size="83" transform="matrix(1 0 0 1 2310.29 953)">-</text><text font-family="DengXian,DengXian_MSFontService,sans-serif" font-weight="400" font-size="83" transform="matrix(1 0 0 1 2351.54 953)">2 : main loop  </text><text font-family="DengXian,DengXian_MSFontService,sans-serif" font-weight="400" font-size="83" transform="matrix(1 0 0 1 2066.37 1095)">1. Genetate scheduling </text><text font-family="DengXian,DengXian_MSFontService,sans-serif" font-weight="400" font-size="83" transform="matrix(1 0 0 1 2898.24 1095)">table</text><text font-family="DengXian,DengXian_MSFontService,sans-serif" font-weight="400" font-size="83" transform="matrix(1 0 0 1 3074.13 1095)">(call fespb.py)</text><text font-family="DengXian,DengXian_MSFontService,sans-serif" font-weight="400" font-size="83" transform="matrix(1 0 0 1 2066.37 1194)">2. Find </text><text font-family="DengXian,DengXian_MSFontService,sans-serif" font-weight="400" font-size="83" transform="matrix(1 0 0 1 2323.61 1194)">next </text><text font-family="DengXian,DengXian_MSFontService,sans-serif" font-weight="400" font-size="83" transform="matrix(1 0 0 1 2496.05 1194)">tasks </text><text font-family="DengXian,DengXian_MSFontService,sans-serif" font-weight="400" font-size="83" transform="matrix(1 0 0 1 2692.57 1194)">by moving pointer</text><text font-family="DengXian,DengXian_MSFontService,sans-serif" font-weight="400" font-size="83" transform="matrix(1 0 0 1 2066.37 1293)">3. Wait left of ptr tasks done</text><text font-family="DengXian,DengXian_MSFontService,sans-serif" font-weight="400" font-size="83" transform="matrix(1 0 0 1 2066.37 1392)">4. Do take tasks</text><text font-family="DengXian,DengXian_MSFontService,sans-serif" font-weight="400" font-size="83" transform="matrix(1 0 0 1 2066.37 1491)">5. Do put tasks</text><text font-family="DengXian,DengXian_MSFontService,sans-serif" font-weight="400" font-size="83" transform="matrix(1 0 0 1 2066.37 1590)">6. Start tasks right of the ptr</text><path d="M3337.37 1524.71C3399.7 1442.44 3410.13 1337.25 3362.73 1268.97L3349.23 1286.8 3344.92 1218.4 3403.25 1215.48 3389.75 1233.31C3437.14 1301.59 3426.71 1406.78 3364.38 1489.05Z" fill-rule="evenodd"/><path d="M3085.06 1561.43C3158.38 1616.97 3273.02 1593.16 3350.18 1506.35 3282.84 1611.41 3158.66 1656.42 3072.81 1606.89 3067.68 1603.93 3062.76 1600.66 3058.05 1597.09Z" fill-rule="evenodd"/><path d="M3337.37 1524.71C3399.7 1442.44 3410.13 1337.25 3362.73 1268.97L3349.23 1286.8 3344.92 1218.4 3403.25 1215.48 3389.75 1233.31C3437.14 1301.59 3426.71 1406.78 3364.38 1489.05L3337.37 1524.71C3261.88 1624.36 3136.83 1656.77 3058.05 1597.09L3085.06 1561.43C3158.38 1616.97 3273.02 1593.16 3350.18 1506.35" stroke="#000000" stroke-width="4.58333" stroke-miterlimit="8" fill="none" fill-rule="evenodd"/><rect x="3872.5" y="588.5" width="549" height="1061" stroke="#000000" stroke-width="4.58333" stroke-linecap="round" stroke-linejoin="round" stroke-miterlimit="10" stroke-dasharray="9.16667 9.16667" fill="#FFFFFF"/><text font-family="Arial,Arial_MSFontService,sans-serif" font-weight="400" font-size="83" transform="matrix(1 0 0 1 4029.65 1129)">S</text><text font-family="Arial,Arial_MSFontService,sans-serif" font-weight="400" font-size="83" transform="matrix(1 0 0 1 4084.65 1129)">QLite</text><path d="M3611 665 3667 609 3667 637 3810 637 3810 609 3866 665 3810 721 3810 693 3667 693 3667 721Z" fill-rule="evenodd"/><path d="M3609 1229 3665 1173 3665 1201 3808 1201 3808 1173 3864 1229 3808 1285 3808 1257 3665 1257 3665 1285Z" fill-rule="evenodd"/><path d="M1281 1054.75 1920.5 1054.75 1920.5 1041 1948 1068.5 1920.5 1096 1920.5 1082.25 1281 1082.25Z" fill-rule="evenodd"/><path d="M1944 1152.25 1304.5 1152.25 1304.5 1166 1277 1138.5 1304.5 1111 1304.5 1124.75 1944 1124.75Z" fill-rule="evenodd"/><text font-family="Arial,Arial_MSFontService,sans-serif" font-weight="400" font-size="64" transform="matrix(1 0 0 1 1294.5 784)">JSON </text><text font-family="Arial,Arial_MSFontService,sans-serif" font-weight="400" font-size="64" transform="matrix(1 0 0 1 1282.46 861)">stream</text><path d="M1565.5 1002.5C1542.3 1002.5 1523.5 999.366 1523.5 995.5L1523.5 807.5C1523.5 803.634 1504.7 800.5 1481.5 800.5 1504.7 800.5 1523.5 797.366 1523.5 793.5L1523.5 605.5C1523.5 601.634 1542.3 598.5 1565.5 598.5" stroke="#000000" stroke-width="4.58333" stroke-miterlimit="8" fill="none" fill-rule="evenodd"/><text font-family="Arial,Arial_MSFontService,sans-serif" font-weight="400" font-size="50" transform="matrix(1 0 0 1 1591.19 617)">Station status</text><text font-family="Arial,Arial_MSFontService,sans-serif" font-weight="400" font-size="50" transform="matrix(1 0 0 1 1594.65 738)">Robot status</text><text font-family="Arial,Arial_MSFontService,sans-serif" font-weight="400" font-size="50" transform="matrix(1 0 0 1 1602.48 1011)">Task info</text><text font-family="Arial,Arial_MSFontService,sans-serif" font-weight="400" font-size="50" transform="matrix(1 0 0 1 1593.6 840)">Operation </text><text font-family="Arial,Arial_MSFontService,sans-serif" font-weight="400" font-size="50" transform="matrix(1 0 0 1 1620.23 901)">records</text><text font-family="Arial,Arial_MSFontService,sans-serif" font-weight="400" font-size="64" transform="matrix(1 0 0 1 1395.8 1248)">Next instruction</text></g></svg>