<svg width="4648" height="1302" xmlns="http://www.w3.org/2000/svg" xmlns:xlink="http://www.w3.org/1999/xlink" xml:space="preserve" overflow="hidden"><g transform="translate(55 -1565)"><rect x="2061.5" y="1596.5" width="2529" height="1268" stroke="#000000" stroke-width="4.58333" stroke-linecap="round" stroke-linejoin="round" stroke-miterlimit="10" fill="#FFFFFF"/><text font-family="Times New Roman,Times New Roman_MSFontService,sans-serif" font-weight="400" font-size="92" transform="matrix(1 0 0 1 2325.56 1682)">Multi</text><text font-family="Times New Roman,Times New Roman_MSFontService,sans-serif" font-weight="400" font-size="92" transform="matrix(1 0 0 1 2528.38 1682)">-</text><text font-family="Times New Roman,Times New Roman_MSFontService,sans-serif" font-weight="400" font-size="92" transform="matrix(1 0 0 1 2558.74 1682)">robot</text><text font-family="Times New Roman,Times New Roman_MSFontService,sans-serif" font-weight="400" font-size="92" transform="matrix(1 0 0 1 2751.81 1682)">-</text><text font-family="Times New Roman,Times New Roman_MSFontService,sans-serif" font-weight="400" font-size="92" transform="matrix(1 0 0 1 2782.18 1682)">multi</text><text font-family="Times New Roman,Times New Roman_MSFontService,sans-serif" font-weight="400" font-size="92" transform="matrix(1 0 0 1 2974.68 1682)">-</text><text font-family="Times New Roman,Times New Roman_MSFontService,sans-serif" font-weight="400" font-size="92" transform="matrix(1 0 0 1 3005.04 1682)">task scheduling(scheduling.py)</text><rect x="2130.5" y="1753.5" width="1576" height="145" stroke="#000000" stroke-width="4.58333" stroke-linecap="round" stroke-linejoin="round" stroke-miterlimit="10" stroke-dasharray="9.16667 9.16667" fill="none"/><text font-family="DengXian,DengXian_MSFontService,sans-serif" font-weight="400" font-size="83" transform="matrix(1 0 0 1 2163.51 1847)">Thread</text><text font-family="DengXian,DengXian_MSFontService,sans-serif" font-weight="400" font-size="83" transform="matrix(1 0 0 1 2411.01 1847)">-</text><text font-family="DengXian,DengXian_MSFontService,sans-serif" font-weight="400" font-size="83" transform="matrix(1 0 0 1 2452.26 1847)">1 : flask server  </text><rect x="2130.5" y="2006.5" width="1576" height="798" stroke="#000000" stroke-width="4.58333" stroke-linecap="round" stroke-linejoin="round" stroke-miterlimit="10" stroke-dasharray="9.16667 9.16667" fill="none"/><text font-family="DengXian,DengXian_MSFontService,sans-serif" font-weight="400" font-size="83" transform="matrix(1 0 0 1 2163.51 2109)">Thread</text><text font-family="DengXian,DengXian_MSFontService,sans-serif" font-weight="400" font-size="83" transform="matrix(1 0 0 1 2411.01 2109)">-</text><text font-family="DengXian,DengXian_MSFontService,sans-serif" font-weight="400" font-size="83" transform="matrix(1 0 0 1 2452.26 2109)">2 : main loop  </text><text font-family="DengXian,DengXian_MSFontService,sans-serif" font-weight="400" font-size="83" transform="matrix(1 0 0 1 2167.08 2251)">1. Genetate scheduling </text><text font-family="DengXian,DengXian_MSFontService,sans-serif" font-weight="400" font-size="83" transform="matrix(1 0 0 1 2998.96 2251)">table</text><text font-family="DengXian,DengXian_MSFontService,sans-serif" font-weight="400" font-size="83" transform="matrix(1 0 0 1 3174.85 2251)">(call fespb.py)</text><text font-family="DengXian,DengXian_MSFontService,sans-serif" font-weight="400" font-size="83" transform="matrix(1 0 0 1 2167.08 2350)">2. Find </text><text font-family="DengXian,DengXian_MSFontService,sans-serif" font-weight="400" font-size="83" transform="matrix(1 0 0 1 2424.32 2350)">next </text><text font-family="DengXian,DengXian_MSFontService,sans-serif" font-weight="400" font-size="83" transform="matrix(1 0 0 1 2596.77 2350)">tasks </text><text font-family="DengXian,DengXian_MSFontService,sans-serif" font-weight="400" font-size="83" transform="matrix(1 0 0 1 2793.28 2350)">by moving pointer</text><text font-family="DengXian,DengXian_MSFontService,sans-serif" font-weight="400" font-size="83" transform="matrix(1 0 0 1 2167.08 2449)">3. Wait left of ptr tasks done</text><text font-family="DengXian,DengXian_MSFontService,sans-serif" font-weight="400" font-size="83" transform="matrix(1 0 0 1 2167.08 2548)">4. Do take tasks</text><text font-family="DengXian,DengXian_MSFontService,sans-serif" font-weight="400" font-size="83" transform="matrix(1 0 0 1 2167.08 2647)">5. Do put tasks</text><text font-family="DengXian,DengXian_MSFontService,sans-serif" font-weight="400" font-size="83" transform="matrix(1 0 0 1 2167.08 2746)">6. Start tasks right of the ptr</text><path d="M3438.09 2679.9C3500.41 2597.62 3510.85 2492.43 3463.45 2424.16L3449.94 2441.99 3445.64 2373.59 3503.97 2370.67 3490.46 2388.5C3537.86 2456.77 3527.43 2561.96 3465.1 2644.24Z" fill-rule="evenodd"/><path d="M3185.78 2716.62C3259.1 2772.16 3373.74 2748.34 3450.89 2661.54 3383.56 2766.6 3259.38 2811.61 3173.53 2762.07 3168.4 2759.12 3163.47 2755.85 3158.77 2752.28Z" fill-rule="evenodd"/><path d="M3438.09 2679.9C3500.41 2597.62 3510.85 2492.43 3463.45 2424.16L3449.94 2441.99 3445.64 2373.59 3503.97 2370.67 3490.46 2388.5C3537.86 2456.77 3527.43 2561.96 3465.1 2644.24L3438.09 2679.9C3362.6 2779.55 3237.54 2811.96 3158.77 2752.28L3185.78 2716.62C3259.1 2772.16 3373.74 2748.34 3450.89 2661.54" stroke="#000000" stroke-width="4.58333" stroke-miterlimit="8" fill="none" fill-rule="evenodd"/><rect x="3973.5" y="1744.5" width="548" height="1060" stroke="#000000" stroke-width="4.58333" stroke-linecap="round" stroke-linejoin="round" stroke-miterlimit="10" stroke-dasharray="9.16667 9.16667" fill="#FFFFFF"/><text font-family="Arial,Arial_MSFontService,sans-serif" font-weight="400" font-size="83" transform="matrix(1 0 0 1 4130.37 2285)">S</text><text font-family="Arial,Arial_MSFontService,sans-serif" font-weight="400" font-size="83" transform="matrix(1 0 0 1 4185.37 2285)">QLite</text><path d="M3712 1820 3768 1764 3768 1792 3911 1792 3911 1764 3967 1820 3911 1876 3911 1848 3768 1848 3768 1876Z" fill-rule="evenodd"/><path d="M3710 2384 3766 2328 3766 2356 3909 2356 3909 2328 3965 2384 3909 2440 3909 2412 3766 2412 3766 2440Z" fill-rule="evenodd"/><path d="M1382 2209.75 2021.5 2209.75 2021.5 2196 2049 2223.5 2021.5 2251 2021.5 2237.25 1382 2237.25Z" fill-rule="evenodd"/><path d="M2045 2307.25 1404.5 2307.25 1404.5 2321 1377 2293.5 1404.5 2266 1404.5 2279.75 2045 2279.75Z" fill-rule="evenodd"/><text font-family="Arial,Arial_MSFontService,sans-serif" font-weight="400" font-size="64" transform="matrix(1 0 0 1 1395.21 1939)">JSON </text><text font-family="Arial,Arial_MSFontService,sans-serif" font-weight="400" font-size="64" transform="matrix(1 0 0 1 1383.18 2016)">stream</text><path d="M1666.5 2157.5C1643.3 2157.5 1624.5 2154.37 1624.5 2150.5L1624.5 1962.5C1624.5 1958.63 1605.7 1955.5 1582.5 1955.5 1605.7 1955.5 1624.5 1952.37 1624.5 1948.5L1624.5 1760.5C1624.5 1756.63 1643.3 1753.5 1666.5 1753.5" stroke="#000000" stroke-width="4.58333" stroke-miterlimit="8" fill="none" fill-rule="evenodd"/><text font-family="Arial,Arial_MSFontService,sans-serif" font-weight="400" font-size="50" transform="matrix(1 0 0 1 1691.91 1772)">Station status</text><text font-family="Arial,Arial_MSFontService,sans-serif" font-weight="400" font-size="50" transform="matrix(1 0 0 1 1695.36 1893)">Robot status</text><text font-family="Arial,Arial_MSFontService,sans-serif" font-weight="400" font-size="50" transform="matrix(1 0 0 1 1703.19 2166)">Task info</text><text font-family="Arial,Arial_MSFontService,sans-serif" font-weight="400" font-size="50" transform="matrix(1 0 0 1 1694.32 1995)">Operation </text><text font-family="Arial,Arial_MSFontService,sans-serif" font-weight="400" font-size="50" transform="matrix(1 0 0 1 1720.95 2056)">records</text><text font-family="Arial,Arial_MSFontService,sans-serif" font-weight="400" font-size="64" transform="matrix(1 0 0 1 1496.52 2403)">Next instruction</text><rect x="-51.5001" y="1744.5" width="1397" height="983" stroke="#000000" stroke-width="6.875" stroke-linecap="round" stroke-linejoin="round" stroke-miterlimit="10" fill="#FFFFFF"/><text font-family="DengXian,DengXian_MSFontService,sans-serif" font-weight="400" font-size="147" transform="matrix(1 0 0 1 128.646 2283)">s</text><text font-family="DengXian,DengXian_MSFontService,sans-serif" font-weight="400" font-size="147" transform="matrix(1 0 0 1 188.23 2283)">end_task_sim.py</text></g></svg>